<?xml version="1.0" encoding="UTF-8" standalone="no"?>
<!-- Created with Inkscape (http://www.inkscape.org/) -->

<svg
   width="57.11084mm"
   height="56.010456mm"
   viewBox="0 0 57.11084 56.010456"
   version="1.1"
   id="svg1"
   xml:space="preserve"
   xmlns="http://www.w3.org/2000/svg"
   xmlns:svg="http://www.w3.org/2000/svg"
   xmlns:ns2="http://www.iki.fi/pav/software/textext/"><defs
     id="defs1"><marker
       style="overflow:visible"
       id="Triangle"
       refX="0"
       refY="0"
       orient="auto-start-reverse"
       markerWidth="1"
       markerHeight="1"
       viewBox="0 0 1 1"
       preserveAspectRatio="xMidYMid"><path
         transform="scale(0.5)"
         style="fill:context-stroke;fill-rule:evenodd;stroke:context-stroke;stroke-width:1pt"
         d="M 5.77,0 -2.88,5 V -5 Z"
         id="path151" /></marker><linearGradient
       id="swatch135"><stop
         style="stop-color:#d4d4d4;stop-opacity:1;"
         offset="0"
         id="stop135" /></linearGradient></defs><g
     id="layer1"
     transform="translate(-97.755789,-18.514759)"><g
       transform="matrix(0.511814,0,0,0.511814,123.74262,30.512793)"
       ns2:version="1.11.0"
       ns2:texconverter="pdflatex"
       ns2:pdfconverter="inkscape"
       ns2:text="$f_{\\text{dyn}}$"
       ns2:preamble="/Users/xinyu/Library/Application Support/org.inkscape.Inkscape/config/inkscape/extensions/textext/default_packages.tex"
       ns2:scale="1.4508116435832168"
       ns2:alignment="middle center"
       ns2:inkscapeversion="1.4"
       ns2:jacobian_sqrt="0.511814"
       id="g359"><defs
   id="id-c7d25f8d-190a-4b16-bee8-90369dfc2ba5" />
  <g
   fill="#000000"
   fill-opacity="1"
   id="id-7df7bf51-2409-4be7-9fff-2c5fc1877136"
   transform="translate(-149.243,-127.734)">
    <g
   transform="translate(148.712,134.765)"
   id="g355"><path
   d="m 3.65625,-3.984375 h 0.859375 c 0.203125,0 0.296875,0 0.296875,-0.203125 0,-0.109375 -0.09375,-0.109375 -0.265625,-0.109375 H 3.71875 L 3.921875,-5.4375 c 0.046875,-0.203125 0.1875,-0.90625 0.25,-1.03125 0.078125,-0.1875 0.25,-0.34375 0.46875,-0.34375 0.03125,0 0.296875,0 0.484375,0.1875 -0.4375,0.03125 -0.546875,0.390625 -0.546875,0.53125 0,0.234375 0.1875,0.359375 0.375,0.359375 C 5.21875,-5.734375 5.5,-5.96875 5.5,-6.34375 c 0,-0.453125 -0.453125,-0.6875 -0.859375,-0.6875 -0.34375,0 -0.96875,0.1875 -1.265625,1.171875 -0.0625,0.203125 -0.09375,0.3125 -0.328125,1.5625 h -0.6875 c -0.203125,0 -0.3125,0 -0.3125,0.1875 0,0.125 0.09375,0.125 0.28125,0.125 h 0.65625 L 2.25,-0.046875 c -0.1875,0.96875 -0.359375,1.875 -0.875,1.875 -0.046875,0 -0.28125,0 -0.484375,-0.1875 C 1.359375,1.609375 1.453125,1.25 1.453125,1.109375 1.453125,0.875 1.265625,0.75 1.078125,0.75 0.8125,0.75 0.53125,0.984375 0.53125,1.359375 c 0,0.4375 0.4375,0.6875 0.84375,0.6875 0.546875,0 0.953125,-0.59375 1.125,-0.96875 0.328125,-0.625 0.546875,-1.828125 0.5625,-1.90625 z m 0,0"
   id="id-889db269-1b03-4cde-8b40-51a71ee394a2" />
      </g></g>
  <g
   fill="#000000"
   fill-opacity="1"
   id="id-02aa6b88-4648-44ff-babf-9177b9f44665"
   transform="translate(-149.243,-127.734)">
    <g
   transform="translate(153.59,136.259)"
   id="g356"><path
   d="m 2.484375,-4.765625 v 0.25 C 2.953125,-4.515625 3,-4.453125 3,-4.125 v 1.453125 c -0.25,-0.25 -0.59375,-0.40625 -0.96875,-0.40625 -0.9375,0 -1.703125,0.703125 -1.703125,1.578125 0,0.875 0.734375,1.5625 1.609375,1.5625 0.578125,0 0.921875,-0.296875 1.03125,-0.421875 V 0.0625 L 4.046875,0 V -0.25 C 3.578125,-0.25 3.53125,-0.296875 3.53125,-0.640625 V -4.84375 Z m 0.484375,4.03125 C 2.796875,-0.40625 2.4375,-0.125 1.984375,-0.125 1.59375,-0.125 1.3125,-0.359375 1.171875,-0.5625 1.03125,-0.765625 0.953125,-1.046875 0.953125,-1.484375 c 0,-0.171875 0,-0.6875 0.28125,-1.015625 0.28125,-0.3125 0.625,-0.375 0.828125,-0.375 0.328125,0 0.640625,0.15625 0.828125,0.40625 0.078125,0.109375 0.078125,0.109375 0.078125,0.25 z m 0,0"
   id="id-17c01d6e-19b8-4653-b50d-38774cb35237" />
      </g><g
   transform="translate(157.99,136.259)"
   id="g357"><path
   d="M 3.296875,-2.328125 C 3.484375,-2.75 3.84375,-2.75 3.953125,-2.75 V -3 c -0.1875,0.015625 -0.328125,0.03125 -0.53125,0.03125 -0.1875,0 -0.4375,-0.015625 -0.625,-0.03125 v 0.25 c 0.234375,0.015625 0.28125,0.15625 0.28125,0.265625 0,0.078125 -0.03125,0.140625 -0.0625,0.21875 L 2.25,-0.625 1.390625,-2.453125 C 1.359375,-2.5 1.34375,-2.546875 1.34375,-2.59375 1.34375,-2.75 1.578125,-2.75 1.703125,-2.75 V -3 C 1.59375,-3 1.09375,-2.96875 0.90625,-2.96875 0.6875,-2.96875 0.421875,-2.984375 0.21875,-3 v 0.25 c 0.390625,0 0.46875,0.015625 0.5625,0.234375 L 1.953125,0 c -0.0625,0.140625 -0.125,0.265625 -0.1875,0.40625 -0.15625,0.34375 -0.375,0.8125 -0.859375,0.8125 -0.171875,0 -0.21875,-0.03125 -0.296875,-0.078125 0.015625,0 0.203125,-0.0625 0.203125,-0.296875 0,-0.171875 -0.125,-0.296875 -0.296875,-0.296875 -0.1875,0 -0.3125,0.125 -0.3125,0.296875 0,0.328125 0.328125,0.578125 0.703125,0.578125 0.59375,0 0.9375,-0.625 1.03125,-0.828125 z m 0,0"
   id="id-4c78eccc-ae67-4b0e-9800-e886d50faaa4" />
      </g><g
   transform="translate(162.176,136.259)"
   id="g358"><path
   d="m 3.59375,-2.109375 c 0,-0.609375 -0.296875,-0.96875 -1.046875,-0.96875 -0.578125,0 -0.9375,0.3125 -1.140625,0.6875 v -0.6875 L 0.375,-3 v 0.25 c 0.46875,0 0.53125,0.046875 0.53125,0.390625 v 1.8125 C 0.90625,-0.25 0.828125,-0.25 0.375,-0.25 V 0 C 0.390625,0 0.875,-0.03125 1.171875,-0.03125 1.421875,-0.03125 1.90625,0 1.96875,0 v -0.25 c -0.453125,0 -0.515625,0 -0.515625,-0.296875 V -1.8125 c 0,-0.71875 0.578125,-1.0625 1.03125,-1.0625 0.484375,0 0.546875,0.375 0.546875,0.734375 v 1.59375 C 3.03125,-0.25 2.96875,-0.25 2.515625,-0.25 V 0 C 2.53125,0 3.015625,-0.03125 3.3125,-0.03125 3.5625,-0.03125 4.046875,0 4.109375,0 v -0.25 c -0.453125,0 -0.515625,0 -0.515625,-0.296875 z m 0,0"
   id="id-ae74cb50-f540-4dd3-8076-1a385bf275f3" />
      </g></g>
</g><path
       style="opacity:0.805;fill:#1a1a1a;stroke:#000000;stroke-width:0.3;stroke-dasharray:none;marker-end:url(#Triangle);paint-order:stroke fill markers"
       d="m 133.39868,33.06792 h 9.61509"
       id="path401" /><path
       style="opacity:0.805;fill:#1a1a1a;stroke:#000000;stroke-width:0.3;stroke-dasharray:none;marker-end:url(#Triangle);paint-order:stroke fill markers"
       d="m 109.20876,33.06792 h 11.46011"
       id="path402" /><path
       style="opacity:0.805;fill:#1a1a1a;stroke:#000000;stroke-width:0.3;stroke-dasharray:none;marker-end:url(#Triangle);paint-order:stroke fill markers"
       d="m 111.73477,26.234951 8.9341,4.129068"
       id="path403" /><text
       xml:space="preserve"
       style="font-style:normal;font-variant:normal;font-weight:normal;font-stretch:normal;font-size:4.23333px;line-height:normal;font-family:'Minion Pro';-inkscape-font-specification:'Minion Pro';text-align:center;text-decoration-color:#000000;writing-mode:lr-tb;direction:ltr;text-anchor:middle;fill:#a5dce0;stroke:#000000;stroke-width:0;paint-order:stroke fill markers"
       x="127.18429"
       y="21.490789"
       id="text403"><tspan
         id="tspan403"
         style="font-style:normal;font-variant:normal;font-weight:bold;font-stretch:normal;font-size:4.23333px;font-family:'Minion Pro';-inkscape-font-specification:'Minion Pro';fill:#000000;stroke:#000000;stroke-width:0"
         x="127.18429"
         y="21.490789">Existing Work</tspan></text><g
       transform="matrix(0.624401,0,0,0.624401,100.986,31.866)"
       ns2:version="1.11.0"
       ns2:texconverter="pdflatex"
       ns2:pdfconverter="inkscape"
       ns2:text="$s_{\\scriptscriptstyle t}$"
       ns2:preamble="/Users/xinyu/Library/Application Support/org.inkscape.Inkscape/config/inkscape/extensions/textext/default_packages.tex"
       ns2:scale="1.769954503965667"
       ns2:alignment="middle center"
       ns2:inkscapeversion="1.4"
       ns2:jacobian_sqrt="0.624401"
       id="g228"><defs
   id="id-fee7eb73-6374-4647-bc3a-879010ef770f" />
  <g
   fill="#000000"
   fill-opacity="1"
   id="id-2b46eab8-74fc-4e11-afe2-85584f4dbce8"
   transform="translate(-149.228,-130.359)">
    <g
   transform="translate(148.712,134.765)"
   id="g403"><path
   d="M 3.890625,-3.734375 C 3.625,-3.71875 3.421875,-3.5 3.421875,-3.28125 c 0,0.140625 0.09375,0.296875 0.3125,0.296875 0.21875,0 0.453125,-0.171875 0.453125,-0.5625 C 4.1875,-4 3.765625,-4.40625 3,-4.40625 c -1.3125,0 -1.6875,1.015625 -1.6875,1.453125 0,0.78125 0.734375,0.921875 1.03125,0.984375 0.515625,0.109375 1.03125,0.21875 1.03125,0.765625 0,0.25 -0.21875,1.09375 -1.421875,1.09375 -0.140625,0 -0.90625,0 -1.140625,-0.53125 0.390625,0.046875 0.640625,-0.25 0.640625,-0.53125 0,-0.21875 -0.171875,-0.34375 -0.375,-0.34375 -0.265625,0 -0.5625,0.203125 -0.5625,0.65625 0,0.5625 0.578125,0.96875 1.421875,0.96875 1.625,0 2.015625,-1.203125 2.015625,-1.65625 0,-0.359375 -0.1875,-0.609375 -0.3125,-0.71875 -0.265625,-0.28125 -0.5625,-0.34375 -1,-0.421875 -0.359375,-0.078125 -0.75,-0.15625 -0.75,-0.609375 C 1.890625,-3.578125 2.125,-4.1875 3,-4.1875 c 0.25,0 0.75,0.078125 0.890625,0.453125 z m 0,0"
   id="id-09548b78-e152-46a6-9be9-bda6fb0d50ea" />
      </g></g>
  <g
   fill="#000000"
   fill-opacity="1"
   id="id-6bddd99e-f02d-44af-b493-e0659a72a69d"
   transform="translate(-149.228,-130.359)">
    <g
   transform="translate(153.382,136.259)"
   id="g404"><path
   d="m 1.5625,-1.921875 h 0.59375 c 0.109375,0 0.109375,0 0.125,-0.03125 C 2.3125,-1.96875 2.328125,-2.03125 2.328125,-2.0625 2.328125,-2.140625 2.25,-2.140625 2.171875,-2.140625 H 1.625 L 1.71875,-2.5625 C 1.75,-2.6875 1.8125,-2.921875 1.8125,-2.953125 1.8125,-3.03125 1.75,-3.125 1.625,-3.125 c -0.078125,0 -0.203125,0.0625 -0.234375,0.1875 -0.03125,0.09375 0.03125,-0.140625 -0.203125,0.796875 H 0.59375 c -0.09375,0 -0.171875,0 -0.171875,0.125 0,0.09375 0.0625,0.09375 0.15625,0.09375 H 1.125 L 0.84375,-0.75 c -0.03125,0.109375 -0.078125,0.265625 -0.078125,0.328125 0,0.28125 0.265625,0.484375 0.625,0.484375 0.59375,0 0.96875,-0.6875 0.96875,-0.78125 0,-0.0625 -0.09375,-0.0625 -0.109375,-0.0625 -0.078125,0 -0.09375,0.015625 -0.109375,0.078125 -0.171875,0.359375 -0.46875,0.59375 -0.734375,0.59375 -0.15625,0 -0.203125,-0.125 -0.203125,-0.265625 0,-0.078125 0,-0.09375 0.015625,-0.140625 z m 0,0"
   id="id-ea8e5e23-3747-470a-9a44-f74bdecc6165" />
      </g></g>
</g><g
       transform="matrix(0.560669,0,0,0.560669,98.2941,23.2988)"
       ns2:version="1.11.0"
       ns2:texconverter="pdflatex"
       ns2:pdfconverter="inkscape"
       ns2:text="$a_{\\scriptscriptstyle  t:t+h}$"
       ns2:preamble="/Users/xinyu/Library/Application Support/org.inkscape.Inkscape/config/inkscape/extensions/textext/default_packages.tex"
       ns2:scale="1.5892972321950667"
       ns2:alignment="middle center"
       ns2:inkscapeversion="1.4"
       ns2:jacobian_sqrt="0.560669"
       id="g280"><defs
   id="id-19e93a47-b5f5-4452-9ed0-500e6f73b89e" />
  <g
   fill="#000000"
   fill-opacity="1"
   id="id-bc80a095-f1ac-4474-baee-046086b4e637"
   transform="translate(-149.118,-130.359)">
    <g
   transform="translate(148.712,134.765)"
   id="g405"><path
   d="M 3.71875,-3.765625 C 3.53125,-4.140625 3.25,-4.40625 2.796875,-4.40625 c -1.15625,0 -2.390625,1.46875 -2.390625,2.921875 0,0.9375 0.546875,1.59375 1.3125,1.59375 0.203125,0 0.703125,-0.046875 1.296875,-0.75 0.078125,0.421875 0.4375,0.75 0.90625,0.75 0.359375,0 0.578125,-0.234375 0.75,-0.546875 0.15625,-0.359375 0.296875,-0.96875 0.296875,-0.984375 0,-0.109375 -0.09375,-0.109375 -0.125,-0.109375 -0.09375,0 -0.109375,0.046875 -0.140625,0.1875 -0.171875,0.640625 -0.34375,1.234375 -0.75,1.234375 -0.28125,0 -0.296875,-0.265625 -0.296875,-0.453125 0,-0.21875 0.015625,-0.3125 0.125,-0.75 C 3.890625,-1.71875 3.90625,-1.828125 4,-2.203125 L 4.359375,-3.59375 c 0.0625,-0.28125 0.0625,-0.296875 0.0625,-0.34375 0,-0.171875 -0.109375,-0.265625 -0.28125,-0.265625 -0.25,0 -0.390625,0.21875 -0.421875,0.4375 z M 3.078125,-1.1875 C 3.015625,-1 3.015625,-0.984375 2.875,-0.8125 2.4375,-0.265625 2.03125,-0.109375 1.75,-0.109375 c -0.5,0 -0.640625,-0.546875 -0.640625,-0.9375 0,-0.5 0.3125,-1.71875 0.546875,-2.1875 0.3125,-0.578125 0.75,-0.953125 1.15625,-0.953125 0.640625,0 0.78125,0.8125 0.78125,0.875 0,0.0625 -0.015625,0.125 -0.03125,0.171875 z m 0,0"
   id="id-1b07afa0-54b4-4bb6-a733-9debe3de220e" />
      </g></g>
  <g
   fill="#000000"
   fill-opacity="1"
   id="id-a12b868e-52a1-479d-9203-cd6359f1cf82"
   transform="translate(-149.118,-130.359)">
    <g
   transform="translate(153.978,136.259)"
   id="g406"><path
   d="m 1.5625,-1.921875 h 0.59375 c 0.109375,0 0.109375,0 0.125,-0.03125 C 2.3125,-1.96875 2.328125,-2.03125 2.328125,-2.0625 2.328125,-2.140625 2.25,-2.140625 2.171875,-2.140625 H 1.625 L 1.71875,-2.5625 C 1.75,-2.6875 1.8125,-2.921875 1.8125,-2.953125 1.8125,-3.03125 1.75,-3.125 1.625,-3.125 c -0.078125,0 -0.203125,0.0625 -0.234375,0.1875 -0.03125,0.09375 0.03125,-0.140625 -0.203125,0.796875 H 0.59375 c -0.09375,0 -0.171875,0 -0.171875,0.125 0,0.09375 0.0625,0.09375 0.15625,0.09375 H 1.125 L 0.84375,-0.75 c -0.03125,0.109375 -0.078125,0.265625 -0.078125,0.328125 0,0.28125 0.265625,0.484375 0.625,0.484375 0.59375,0 0.96875,-0.6875 0.96875,-0.78125 0,-0.0625 -0.09375,-0.0625 -0.109375,-0.0625 -0.078125,0 -0.09375,0.015625 -0.109375,0.078125 -0.171875,0.359375 -0.46875,0.59375 -0.734375,0.59375 -0.15625,0 -0.203125,-0.125 -0.203125,-0.265625 0,-0.078125 0,-0.09375 0.015625,-0.140625 z m 0,0"
   id="id-710af06f-d873-4bf1-adc2-0826ac8e63ca" />
      </g></g>
  <g
   fill="#000000"
   fill-opacity="1"
   id="id-4e5b6fa4-6bce-4b58-ae17-68d21c16c0b6"
   transform="translate(-149.118,-130.359)">
    <g
   transform="translate(156.786,136.259)"
   id="g407"><path
   d="m 1.3125,-1.84375 c 0,-0.171875 -0.140625,-0.296875 -0.3125,-0.296875 -0.15625,0 -0.296875,0.125 -0.296875,0.296875 0,0.171875 0.125,0.296875 0.296875,0.296875 0.171875,0 0.3125,-0.125 0.3125,-0.296875 z m 0,1.546875 c 0,-0.171875 -0.140625,-0.3125 -0.3125,-0.3125 -0.15625,0 -0.296875,0.140625 -0.296875,0.3125 C 0.703125,-0.140625 0.828125,0 1,0 1.171875,0 1.3125,-0.140625 1.3125,-0.296875 Z m 0,0"
   id="id-ec6c48f0-ece1-48b6-a025-4a4c08d5cd6a" />
      </g></g>
  <g
   fill="#000000"
   fill-opacity="1"
   id="id-02a4821e-5000-4a58-9f5b-3f12f6bb46c8"
   transform="translate(-149.118,-130.359)">
    <g
   transform="translate(158.793,136.259)"
   id="g408"><path
   d="m 1.5625,-1.921875 h 0.59375 c 0.109375,0 0.109375,0 0.125,-0.03125 C 2.3125,-1.96875 2.328125,-2.03125 2.328125,-2.0625 2.328125,-2.140625 2.25,-2.140625 2.171875,-2.140625 H 1.625 L 1.71875,-2.5625 C 1.75,-2.6875 1.8125,-2.921875 1.8125,-2.953125 1.8125,-3.03125 1.75,-3.125 1.625,-3.125 c -0.078125,0 -0.203125,0.0625 -0.234375,0.1875 -0.03125,0.09375 0.03125,-0.140625 -0.203125,0.796875 H 0.59375 c -0.09375,0 -0.171875,0 -0.171875,0.125 0,0.09375 0.0625,0.09375 0.15625,0.09375 H 1.125 L 0.84375,-0.75 c -0.03125,0.109375 -0.078125,0.265625 -0.078125,0.328125 0,0.28125 0.265625,0.484375 0.625,0.484375 0.59375,0 0.96875,-0.6875 0.96875,-0.78125 0,-0.0625 -0.09375,-0.0625 -0.109375,-0.0625 -0.078125,0 -0.09375,0.015625 -0.109375,0.078125 -0.171875,0.359375 -0.46875,0.59375 -0.734375,0.59375 -0.15625,0 -0.203125,-0.125 -0.203125,-0.265625 0,-0.078125 0,-0.09375 0.015625,-0.140625 z m 0,0"
   id="id-d43339f6-8656-45be-acb6-b30be56b4164" />
      </g></g>
  <g
   fill="#000000"
   fill-opacity="1"
   id="id-a5da20b3-2329-470c-b370-4ed79e7d6372"
   transform="translate(-149.118,-130.359)">
    <g
   transform="translate(161.6,136.259)"
   id="g409"><path
   d="M 2.703125,-1.109375 H 4.4375 c 0.0625,0 0.203125,0 0.203125,-0.140625 C 4.640625,-1.390625 4.5,-1.390625 4.4375,-1.390625 H 2.703125 V -3.125 c 0,-0.0625 0,-0.203125 -0.140625,-0.203125 -0.140625,0 -0.140625,0.140625 -0.140625,0.203125 v 1.734375 H 0.6875 c -0.0625,0 -0.203125,0 -0.203125,0.140625 0,0.140625 0.140625,0.140625 0.203125,0.140625 H 2.421875 V 0.625 c 0,0.078125 0,0.203125 0.140625,0.203125 0.140625,0 0.140625,-0.125 0.140625,-0.203125 z m 0,0"
   id="id-df378020-184b-4ac8-82ba-75e116f5cb65" />
      </g></g>
  <g
   fill="#000000"
   fill-opacity="1"
   id="id-26bdc3c4-f886-4cb8-82c7-18d830f7648a"
   transform="translate(-149.118,-130.359)">
    <g
   transform="translate(166.72,136.259)"
   id="g410"><path
   d="m 1.828125,-3.265625 c 0.03125,-0.078125 0.03125,-0.078125 0.03125,-0.109375 0,-0.078125 -0.078125,-0.078125 -0.15625,-0.078125 L 1.09375,-3.40625 c -0.09375,0 -0.109375,0 -0.125,0.03125 -0.015625,0.015625 -0.03125,0.078125 -0.03125,0.109375 0,0.078125 0.078125,0.078125 0.140625,0.078125 0.015625,0 0.09375,0 0.171875,0.015625 0.09375,0.015625 0.09375,0.03125 0.09375,0.0625 0,0.015625 0,0.03125 -0.015625,0.125 l -0.6875,2.75 C 0.625,-0.171875 0.625,-0.15625 0.625,-0.125 c 0,0.109375 0.078125,0.1875 0.1875,0.1875 0.09375,0 0.203125,-0.078125 0.234375,-0.203125 0.015625,-0.046875 0.03125,-0.125 0.109375,-0.4375 L 1.25,-0.921875 c 0.078125,-0.296875 0.078125,-0.3125 0.203125,-0.53125 0.21875,-0.296875 0.5,-0.578125 0.90625,-0.578125 0.25,0 0.34375,0.140625 0.34375,0.359375 0,0.28125 -0.21875,0.8125 -0.28125,0.984375 -0.078125,0.171875 -0.09375,0.21875 -0.09375,0.296875 0,0.265625 0.25,0.453125 0.546875,0.453125 0.53125,0 0.796875,-0.65625 0.796875,-0.78125 0,-0.0625 -0.078125,-0.0625 -0.109375,-0.0625 -0.078125,0 -0.078125,0.015625 -0.109375,0.109375 -0.09375,0.265625 -0.3125,0.5625 -0.5625,0.5625 -0.109375,0 -0.15625,-0.078125 -0.15625,-0.1875 0,-0.109375 0.0625,-0.25 0.109375,-0.375 0.0625,-0.125 0.28125,-0.671875 0.28125,-0.9375 0,-0.34375 -0.234375,-0.59375 -0.75,-0.59375 -0.484375,0 -0.78125,0.3125 -0.921875,0.484375 z m 0,0"
   id="id-e60e812d-0848-4bc9-a921-a436f82c2fb4" />
      </g></g>
</g><g
       transform="matrix(0.624401,0,0,0.624401,145.0299,30.0708)"
       ns2:version="1.11.0"
       ns2:texconverter="pdflatex"
       ns2:pdfconverter="inkscape"
       ns2:text="$\\hat{s}_{\\scriptscriptstyle t+h}$"
       ns2:preamble="/Users/xinyu/Library/Application Support/org.inkscape.Inkscape/config/inkscape/extensions/textext/default_packages.tex"
       ns2:scale="1.769954503965667"
       ns2:alignment="middle center"
       ns2:inkscapeversion="1.4"
       ns2:jacobian_sqrt="0.624401"
       id="g261"><defs
   id="id-d40c54d2-6525-4551-b494-941e2b0bea49" />
  <g
   fill="#000000"
   fill-opacity="1"
   id="id-040d3646-328c-4ad7-9aaf-f980bee5bbf3"
   transform="translate(-149.228,-127.843)">
    <g
   transform="translate(149.11,134.765)"
   id="g411"><path
   d="M 2.5,-6.921875 1.15625,-5.5625 1.328125,-5.390625 2.5,-6.40625 3.640625,-5.390625 3.8125,-5.5625 Z m 0,0"
   id="id-f1af2eab-1925-4667-a2a6-65a9e3e04061" />
      </g></g>
  <g
   fill="#000000"
   fill-opacity="1"
   id="id-de9238c0-d730-4525-af56-431fab0f25c2"
   transform="translate(-149.228,-127.843)">
    <g
   transform="translate(148.712,134.765)"
   id="g412"><path
   d="M 3.890625,-3.734375 C 3.625,-3.71875 3.421875,-3.5 3.421875,-3.28125 c 0,0.140625 0.09375,0.296875 0.3125,0.296875 0.21875,0 0.453125,-0.171875 0.453125,-0.5625 C 4.1875,-4 3.765625,-4.40625 3,-4.40625 c -1.3125,0 -1.6875,1.015625 -1.6875,1.453125 0,0.78125 0.734375,0.921875 1.03125,0.984375 0.515625,0.109375 1.03125,0.21875 1.03125,0.765625 0,0.25 -0.21875,1.09375 -1.421875,1.09375 -0.140625,0 -0.90625,0 -1.140625,-0.53125 0.390625,0.046875 0.640625,-0.25 0.640625,-0.53125 0,-0.21875 -0.171875,-0.34375 -0.375,-0.34375 -0.265625,0 -0.5625,0.203125 -0.5625,0.65625 0,0.5625 0.578125,0.96875 1.421875,0.96875 1.625,0 2.015625,-1.203125 2.015625,-1.65625 0,-0.359375 -0.1875,-0.609375 -0.3125,-0.71875 -0.265625,-0.28125 -0.5625,-0.34375 -1,-0.421875 -0.359375,-0.078125 -0.75,-0.15625 -0.75,-0.609375 C 1.890625,-3.578125 2.125,-4.1875 3,-4.1875 c 0.25,0 0.75,0.078125 0.890625,0.453125 z m 0,0"
   id="id-01711197-0386-4bb2-9b3d-99bd8d41f944" />
      </g></g>
  <g
   fill="#000000"
   fill-opacity="1"
   id="id-268a0088-cbdf-4686-be05-c95f0accc0a4"
   transform="translate(-149.228,-127.843)">
    <g
   transform="translate(153.382,136.259)"
   id="g413"><path
   d="m 1.5625,-1.921875 h 0.59375 c 0.109375,0 0.109375,0 0.125,-0.03125 C 2.3125,-1.96875 2.328125,-2.03125 2.328125,-2.0625 2.328125,-2.140625 2.25,-2.140625 2.171875,-2.140625 H 1.625 L 1.71875,-2.5625 C 1.75,-2.6875 1.8125,-2.921875 1.8125,-2.953125 1.8125,-3.03125 1.75,-3.125 1.625,-3.125 c -0.078125,0 -0.203125,0.0625 -0.234375,0.1875 -0.03125,0.09375 0.03125,-0.140625 -0.203125,0.796875 H 0.59375 c -0.09375,0 -0.171875,0 -0.171875,0.125 0,0.09375 0.0625,0.09375 0.15625,0.09375 H 1.125 L 0.84375,-0.75 c -0.03125,0.109375 -0.078125,0.265625 -0.078125,0.328125 0,0.28125 0.265625,0.484375 0.625,0.484375 0.59375,0 0.96875,-0.6875 0.96875,-0.78125 0,-0.0625 -0.09375,-0.0625 -0.109375,-0.0625 -0.078125,0 -0.09375,0.015625 -0.109375,0.078125 -0.171875,0.359375 -0.46875,0.59375 -0.734375,0.59375 -0.15625,0 -0.203125,-0.125 -0.203125,-0.265625 0,-0.078125 0,-0.09375 0.015625,-0.140625 z m 0,0"
   id="id-db50336d-eecd-4795-b5f0-2a0dcc09c6a1" />
      </g></g>
  <g
   fill="#000000"
   fill-opacity="1"
   id="id-951b7210-e7d6-4e7b-83fd-1950c6124acc"
   transform="translate(-149.228,-127.843)">
    <g
   transform="translate(156.19,136.259)"
   id="g414"><path
   d="M 2.703125,-1.109375 H 4.4375 c 0.0625,0 0.203125,0 0.203125,-0.140625 C 4.640625,-1.390625 4.5,-1.390625 4.4375,-1.390625 H 2.703125 V -3.125 c 0,-0.0625 0,-0.203125 -0.140625,-0.203125 -0.140625,0 -0.140625,0.140625 -0.140625,0.203125 v 1.734375 H 0.6875 c -0.0625,0 -0.203125,0 -0.203125,0.140625 0,0.140625 0.140625,0.140625 0.203125,0.140625 H 2.421875 V 0.625 c 0,0.078125 0,0.203125 0.140625,0.203125 0.140625,0 0.140625,-0.125 0.140625,-0.203125 z m 0,0"
   id="id-075aeccf-6ecd-44d8-8ac3-668ad96fb833" />
      </g></g>
  <g
   fill="#000000"
   fill-opacity="1"
   id="id-17c1cc27-a7fa-4f91-9088-c380c431b371"
   transform="translate(-149.228,-127.843)">
    <g
   transform="translate(161.31,136.259)"
   id="g415"><path
   d="m 1.828125,-3.265625 c 0.03125,-0.078125 0.03125,-0.078125 0.03125,-0.109375 0,-0.078125 -0.078125,-0.078125 -0.15625,-0.078125 L 1.09375,-3.40625 c -0.09375,0 -0.109375,0 -0.125,0.03125 -0.015625,0.015625 -0.03125,0.078125 -0.03125,0.109375 0,0.078125 0.078125,0.078125 0.140625,0.078125 0.015625,0 0.09375,0 0.171875,0.015625 0.09375,0.015625 0.09375,0.03125 0.09375,0.0625 0,0.015625 0,0.03125 -0.015625,0.125 l -0.6875,2.75 C 0.625,-0.171875 0.625,-0.15625 0.625,-0.125 c 0,0.109375 0.078125,0.1875 0.1875,0.1875 0.09375,0 0.203125,-0.078125 0.234375,-0.203125 0.015625,-0.046875 0.03125,-0.125 0.109375,-0.4375 L 1.25,-0.921875 c 0.078125,-0.296875 0.078125,-0.3125 0.203125,-0.53125 0.21875,-0.296875 0.5,-0.578125 0.90625,-0.578125 0.25,0 0.34375,0.140625 0.34375,0.359375 0,0.28125 -0.21875,0.8125 -0.28125,0.984375 -0.078125,0.171875 -0.09375,0.21875 -0.09375,0.296875 0,0.265625 0.25,0.453125 0.546875,0.453125 0.53125,0 0.796875,-0.65625 0.796875,-0.78125 0,-0.0625 -0.078125,-0.0625 -0.109375,-0.0625 -0.078125,0 -0.078125,0.015625 -0.109375,0.109375 -0.09375,0.265625 -0.3125,0.5625 -0.5625,0.5625 -0.109375,0 -0.15625,-0.078125 -0.15625,-0.1875 0,-0.109375 0.0625,-0.25 0.109375,-0.375 0.0625,-0.125 0.28125,-0.671875 0.28125,-0.9375 0,-0.34375 -0.234375,-0.59375 -0.75,-0.59375 -0.484375,0 -0.78125,0.3125 -0.921875,0.484375 z m 0,0"
   id="id-5a790e19-99b2-45dc-9341-e6cd9f085f2b" />
      </g></g>
</g><text
       xml:space="preserve"
       style="font-style:normal;font-variant:normal;font-weight:normal;font-stretch:normal;font-size:4.23333px;line-height:normal;font-family:'Minion Pro';-inkscape-font-specification:'Minion Pro';text-align:center;text-decoration-color:#000000;writing-mode:lr-tb;direction:ltr;text-anchor:middle;fill:#a5dce0;stroke:#000000;stroke-width:0;paint-order:stroke fill markers"
       x="127.18429"
       y="46.293617"
       id="text455"><tspan
         id="tspan455"
         style="font-style:normal;font-variant:normal;font-weight:bold;font-stretch:normal;font-size:4.23333px;font-family:'Minion Pro';-inkscape-font-specification:'Minion Pro';fill:#000000;stroke:#000000;stroke-width:0"
         x="127.18429"
         y="46.293617">RLA World Model (Ours)</tspan></text><g
       transform="matrix(0.511814,0,0,0.511814,117.08021,59.065146)"
       ns2:version="1.11.0"
       ns2:texconverter="pdflatex"
       ns2:pdfconverter="inkscape"
       ns2:text="$f_{\\text{dyn}}$"
       ns2:preamble="/Users/xinyu/Library/Application Support/org.inkscape.Inkscape/config/inkscape/extensions/textext/default_packages.tex"
       ns2:scale="1.4508116435832168"
       ns2:alignment="middle center"
       ns2:inkscapeversion="1.4"
       ns2:jacobian_sqrt="0.511814"
       id="g506"><defs
   id="defs499" />
  <g
   fill="#000000"
   fill-opacity="1"
   id="g501"
   transform="translate(-149.243,-127.734)">
    <g
   transform="translate(148.712,134.765)"
   id="g500"><path
   d="m 3.65625,-3.984375 h 0.859375 c 0.203125,0 0.296875,0 0.296875,-0.203125 0,-0.109375 -0.09375,-0.109375 -0.265625,-0.109375 H 3.71875 L 3.921875,-5.4375 c 0.046875,-0.203125 0.1875,-0.90625 0.25,-1.03125 0.078125,-0.1875 0.25,-0.34375 0.46875,-0.34375 0.03125,0 0.296875,0 0.484375,0.1875 -0.4375,0.03125 -0.546875,0.390625 -0.546875,0.53125 0,0.234375 0.1875,0.359375 0.375,0.359375 C 5.21875,-5.734375 5.5,-5.96875 5.5,-6.34375 c 0,-0.453125 -0.453125,-0.6875 -0.859375,-0.6875 -0.34375,0 -0.96875,0.1875 -1.265625,1.171875 -0.0625,0.203125 -0.09375,0.3125 -0.328125,1.5625 h -0.6875 c -0.203125,0 -0.3125,0 -0.3125,0.1875 0,0.125 0.09375,0.125 0.28125,0.125 h 0.65625 L 2.25,-0.046875 c -0.1875,0.96875 -0.359375,1.875 -0.875,1.875 -0.046875,0 -0.28125,0 -0.484375,-0.1875 C 1.359375,1.609375 1.453125,1.25 1.453125,1.109375 1.453125,0.875 1.265625,0.75 1.078125,0.75 0.8125,0.75 0.53125,0.984375 0.53125,1.359375 c 0,0.4375 0.4375,0.6875 0.84375,0.6875 0.546875,0 0.953125,-0.59375 1.125,-0.96875 0.328125,-0.625 0.546875,-1.828125 0.5625,-1.90625 z m 0,0"
   id="path499" />
      </g></g>
  <g
   fill="#000000"
   fill-opacity="1"
   id="g505"
   transform="translate(-149.243,-127.734)">
    <g
   transform="translate(153.59,136.259)"
   id="g502"><path
   d="m 2.484375,-4.765625 v 0.25 C 2.953125,-4.515625 3,-4.453125 3,-4.125 v 1.453125 c -0.25,-0.25 -0.59375,-0.40625 -0.96875,-0.40625 -0.9375,0 -1.703125,0.703125 -1.703125,1.578125 0,0.875 0.734375,1.5625 1.609375,1.5625 0.578125,0 0.921875,-0.296875 1.03125,-0.421875 V 0.0625 L 4.046875,0 V -0.25 C 3.578125,-0.25 3.53125,-0.296875 3.53125,-0.640625 V -4.84375 Z m 0.484375,4.03125 C 2.796875,-0.40625 2.4375,-0.125 1.984375,-0.125 1.59375,-0.125 1.3125,-0.359375 1.171875,-0.5625 1.03125,-0.765625 0.953125,-1.046875 0.953125,-1.484375 c 0,-0.171875 0,-0.6875 0.28125,-1.015625 0.28125,-0.3125 0.625,-0.375 0.828125,-0.375 0.328125,0 0.640625,0.15625 0.828125,0.40625 0.078125,0.109375 0.078125,0.109375 0.078125,0.25 z m 0,0"
   id="path501" />
      </g><g
   transform="translate(157.99,136.259)"
   id="g503"><path
   d="M 3.296875,-2.328125 C 3.484375,-2.75 3.84375,-2.75 3.953125,-2.75 V -3 c -0.1875,0.015625 -0.328125,0.03125 -0.53125,0.03125 -0.1875,0 -0.4375,-0.015625 -0.625,-0.03125 v 0.25 c 0.234375,0.015625 0.28125,0.15625 0.28125,0.265625 0,0.078125 -0.03125,0.140625 -0.0625,0.21875 L 2.25,-0.625 1.390625,-2.453125 C 1.359375,-2.5 1.34375,-2.546875 1.34375,-2.59375 1.34375,-2.75 1.578125,-2.75 1.703125,-2.75 V -3 C 1.59375,-3 1.09375,-2.96875 0.90625,-2.96875 0.6875,-2.96875 0.421875,-2.984375 0.21875,-3 v 0.25 c 0.390625,0 0.46875,0.015625 0.5625,0.234375 L 1.953125,0 c -0.0625,0.140625 -0.125,0.265625 -0.1875,0.40625 -0.15625,0.34375 -0.375,0.8125 -0.859375,0.8125 -0.171875,0 -0.21875,-0.03125 -0.296875,-0.078125 0.015625,0 0.203125,-0.0625 0.203125,-0.296875 0,-0.171875 -0.125,-0.296875 -0.296875,-0.296875 -0.1875,0 -0.3125,0.125 -0.3125,0.296875 0,0.328125 0.328125,0.578125 0.703125,0.578125 0.59375,0 0.9375,-0.625 1.03125,-0.828125 z m 0,0"
   id="path502" />
      </g><g
   transform="translate(162.176,136.259)"
   id="g504"><path
   d="m 3.59375,-2.109375 c 0,-0.609375 -0.296875,-0.96875 -1.046875,-0.96875 -0.578125,0 -0.9375,0.3125 -1.140625,0.6875 v -0.6875 L 0.375,-3 v 0.25 c 0.46875,0 0.53125,0.046875 0.53125,0.390625 v 1.8125 C 0.90625,-0.25 0.828125,-0.25 0.375,-0.25 V 0 C 0.390625,0 0.875,-0.03125 1.171875,-0.03125 1.421875,-0.03125 1.90625,0 1.96875,0 v -0.25 c -0.453125,0 -0.515625,0 -0.515625,-0.296875 V -1.8125 c 0,-0.71875 0.578125,-1.0625 1.03125,-1.0625 0.484375,0 0.546875,0.375 0.546875,0.734375 v 1.59375 C 3.03125,-0.25 2.96875,-0.25 2.515625,-0.25 V 0 C 2.53125,0 3.015625,-0.03125 3.3125,-0.03125 3.5625,-0.03125 4.046875,0 4.109375,0 v -0.25 c -0.453125,0 -0.515625,0 -0.515625,-0.296875 z m 0,0"
   id="path503" />
      </g></g>
</g><path
       style="opacity:0.805;fill:#1a1a1a;stroke:#000000;stroke-width:0.3;stroke-dasharray:none;marker-end:url(#Triangle);paint-order:stroke fill markers"
       d="m 105.58444,61.620276 h 8.42202"
       id="path506" /><path
       style="opacity:0.805;fill:#1a1a1a;stroke:#000000;stroke-width:0.3;stroke-dasharray:none;marker-end:url(#Triangle);paint-order:stroke fill markers"
       d="m 105.07236,54.787306 8.9341,4.12906"
       id="path507" /><g
       transform="matrix(0.624401,0,0,0.624401,99.774588,59.879985)"
       ns2:version="1.11.0"
       ns2:texconverter="pdflatex"
       ns2:pdfconverter="inkscape"
       ns2:text="$s_{\\scriptscriptstyle t}$"
       ns2:preamble="/Users/xinyu/Library/Application Support/org.inkscape.Inkscape/config/inkscape/extensions/textext/default_packages.tex"
       ns2:scale="1.769954503965667"
       ns2:alignment="middle center"
       ns2:inkscapeversion="1.4"
       ns2:jacobian_sqrt="0.624401"
       id="g515"><defs
   id="defs510" />
  <g
   fill="#000000"
   fill-opacity="1"
   id="g512"
   transform="translate(-149.228,-130.359)">
    <g
   transform="translate(148.712,134.765)"
   id="g511"><path
   d="M 3.890625,-3.734375 C 3.625,-3.71875 3.421875,-3.5 3.421875,-3.28125 c 0,0.140625 0.09375,0.296875 0.3125,0.296875 0.21875,0 0.453125,-0.171875 0.453125,-0.5625 C 4.1875,-4 3.765625,-4.40625 3,-4.40625 c -1.3125,0 -1.6875,1.015625 -1.6875,1.453125 0,0.78125 0.734375,0.921875 1.03125,0.984375 0.515625,0.109375 1.03125,0.21875 1.03125,0.765625 0,0.25 -0.21875,1.09375 -1.421875,1.09375 -0.140625,0 -0.90625,0 -1.140625,-0.53125 0.390625,0.046875 0.640625,-0.25 0.640625,-0.53125 0,-0.21875 -0.171875,-0.34375 -0.375,-0.34375 -0.265625,0 -0.5625,0.203125 -0.5625,0.65625 0,0.5625 0.578125,0.96875 1.421875,0.96875 1.625,0 2.015625,-1.203125 2.015625,-1.65625 0,-0.359375 -0.1875,-0.609375 -0.3125,-0.71875 -0.265625,-0.28125 -0.5625,-0.34375 -1,-0.421875 -0.359375,-0.078125 -0.75,-0.15625 -0.75,-0.609375 C 1.890625,-3.578125 2.125,-4.1875 3,-4.1875 c 0.25,0 0.75,0.078125 0.890625,0.453125 z m 0,0"
   id="path510" />
      </g></g>
  <g
   fill="#000000"
   fill-opacity="1"
   id="g514"
   transform="translate(-149.228,-130.359)">
    <g
   transform="translate(153.382,136.259)"
   id="g513"><path
   d="m 1.5625,-1.921875 h 0.59375 c 0.109375,0 0.109375,0 0.125,-0.03125 C 2.3125,-1.96875 2.328125,-2.03125 2.328125,-2.0625 2.328125,-2.140625 2.25,-2.140625 2.171875,-2.140625 H 1.625 L 1.71875,-2.5625 C 1.75,-2.6875 1.8125,-2.921875 1.8125,-2.953125 1.8125,-3.03125 1.75,-3.125 1.625,-3.125 c -0.078125,0 -0.203125,0.0625 -0.234375,0.1875 -0.03125,0.09375 0.03125,-0.140625 -0.203125,0.796875 H 0.59375 c -0.09375,0 -0.171875,0 -0.171875,0.125 0,0.09375 0.0625,0.09375 0.15625,0.09375 H 1.125 L 0.84375,-0.75 c -0.03125,0.109375 -0.078125,0.265625 -0.078125,0.328125 0,0.28125 0.265625,0.484375 0.625,0.484375 0.59375,0 0.96875,-0.6875 0.96875,-0.78125 0,-0.0625 -0.09375,-0.0625 -0.109375,-0.0625 -0.078125,0 -0.09375,0.015625 -0.109375,0.078125 -0.171875,0.359375 -0.46875,0.59375 -0.734375,0.59375 -0.15625,0 -0.203125,-0.125 -0.203125,-0.265625 0,-0.078125 0,-0.09375 0.015625,-0.140625 z m 0,0"
   id="path512" />
      </g></g>
</g><g
       transform="matrix(0.560669,0,0,0.560669,97.755648,50.236044)"
       ns2:version="1.11.0"
       ns2:texconverter="pdflatex"
       ns2:pdfconverter="inkscape"
       ns2:text="$a_{\\scriptscriptstyle  t:t+h}$"
       ns2:preamble="/Users/xinyu/Library/Application Support/org.inkscape.Inkscape/config/inkscape/extensions/textext/default_packages.tex"
       ns2:scale="1.5892972321950667"
       ns2:alignment="middle center"
       ns2:inkscapeversion="1.4"
       ns2:jacobian_sqrt="0.560669"
       id="g534"><defs
   id="defs521" />
  <g
   fill="#000000"
   fill-opacity="1"
   id="g523"
   transform="translate(-149.118,-130.359)">
    <g
   transform="translate(148.712,134.765)"
   id="g522"><path
   d="M 3.71875,-3.765625 C 3.53125,-4.140625 3.25,-4.40625 2.796875,-4.40625 c -1.15625,0 -2.390625,1.46875 -2.390625,2.921875 0,0.9375 0.546875,1.59375 1.3125,1.59375 0.203125,0 0.703125,-0.046875 1.296875,-0.75 0.078125,0.421875 0.4375,0.75 0.90625,0.75 0.359375,0 0.578125,-0.234375 0.75,-0.546875 0.15625,-0.359375 0.296875,-0.96875 0.296875,-0.984375 0,-0.109375 -0.09375,-0.109375 -0.125,-0.109375 -0.09375,0 -0.109375,0.046875 -0.140625,0.1875 -0.171875,0.640625 -0.34375,1.234375 -0.75,1.234375 -0.28125,0 -0.296875,-0.265625 -0.296875,-0.453125 0,-0.21875 0.015625,-0.3125 0.125,-0.75 C 3.890625,-1.71875 3.90625,-1.828125 4,-2.203125 L 4.359375,-3.59375 c 0.0625,-0.28125 0.0625,-0.296875 0.0625,-0.34375 0,-0.171875 -0.109375,-0.265625 -0.28125,-0.265625 -0.25,0 -0.390625,0.21875 -0.421875,0.4375 z M 3.078125,-1.1875 C 3.015625,-1 3.015625,-0.984375 2.875,-0.8125 2.4375,-0.265625 2.03125,-0.109375 1.75,-0.109375 c -0.5,0 -0.640625,-0.546875 -0.640625,-0.9375 0,-0.5 0.3125,-1.71875 0.546875,-2.1875 0.3125,-0.578125 0.75,-0.953125 1.15625,-0.953125 0.640625,0 0.78125,0.8125 0.78125,0.875 0,0.0625 -0.015625,0.125 -0.03125,0.171875 z m 0,0"
   id="path521" />
      </g></g>
  <g
   fill="#000000"
   fill-opacity="1"
   id="g525"
   transform="translate(-149.118,-130.359)">
    <g
   transform="translate(153.978,136.259)"
   id="g524"><path
   d="m 1.5625,-1.921875 h 0.59375 c 0.109375,0 0.109375,0 0.125,-0.03125 C 2.3125,-1.96875 2.328125,-2.03125 2.328125,-2.0625 2.328125,-2.140625 2.25,-2.140625 2.171875,-2.140625 H 1.625 L 1.71875,-2.5625 C 1.75,-2.6875 1.8125,-2.921875 1.8125,-2.953125 1.8125,-3.03125 1.75,-3.125 1.625,-3.125 c -0.078125,0 -0.203125,0.0625 -0.234375,0.1875 -0.03125,0.09375 0.03125,-0.140625 -0.203125,0.796875 H 0.59375 c -0.09375,0 -0.171875,0 -0.171875,0.125 0,0.09375 0.0625,0.09375 0.15625,0.09375 H 1.125 L 0.84375,-0.75 c -0.03125,0.109375 -0.078125,0.265625 -0.078125,0.328125 0,0.28125 0.265625,0.484375 0.625,0.484375 0.59375,0 0.96875,-0.6875 0.96875,-0.78125 0,-0.0625 -0.09375,-0.0625 -0.109375,-0.0625 -0.078125,0 -0.09375,0.015625 -0.109375,0.078125 -0.171875,0.359375 -0.46875,0.59375 -0.734375,0.59375 -0.15625,0 -0.203125,-0.125 -0.203125,-0.265625 0,-0.078125 0,-0.09375 0.015625,-0.140625 z m 0,0"
   id="path523" />
      </g></g>
  <g
   fill="#000000"
   fill-opacity="1"
   id="g527"
   transform="translate(-149.118,-130.359)">
    <g
   transform="translate(156.786,136.259)"
   id="g526"><path
   d="m 1.3125,-1.84375 c 0,-0.171875 -0.140625,-0.296875 -0.3125,-0.296875 -0.15625,0 -0.296875,0.125 -0.296875,0.296875 0,0.171875 0.125,0.296875 0.296875,0.296875 0.171875,0 0.3125,-0.125 0.3125,-0.296875 z m 0,1.546875 c 0,-0.171875 -0.140625,-0.3125 -0.3125,-0.3125 -0.15625,0 -0.296875,0.140625 -0.296875,0.3125 C 0.703125,-0.140625 0.828125,0 1,0 1.171875,0 1.3125,-0.140625 1.3125,-0.296875 Z m 0,0"
   id="path525" />
      </g></g>
  <g
   fill="#000000"
   fill-opacity="1"
   id="g529"
   transform="translate(-149.118,-130.359)">
    <g
   transform="translate(158.793,136.259)"
   id="g528"><path
   d="m 1.5625,-1.921875 h 0.59375 c 0.109375,0 0.109375,0 0.125,-0.03125 C 2.3125,-1.96875 2.328125,-2.03125 2.328125,-2.0625 2.328125,-2.140625 2.25,-2.140625 2.171875,-2.140625 H 1.625 L 1.71875,-2.5625 C 1.75,-2.6875 1.8125,-2.921875 1.8125,-2.953125 1.8125,-3.03125 1.75,-3.125 1.625,-3.125 c -0.078125,0 -0.203125,0.0625 -0.234375,0.1875 -0.03125,0.09375 0.03125,-0.140625 -0.203125,0.796875 H 0.59375 c -0.09375,0 -0.171875,0 -0.171875,0.125 0,0.09375 0.0625,0.09375 0.15625,0.09375 H 1.125 L 0.84375,-0.75 c -0.03125,0.109375 -0.078125,0.265625 -0.078125,0.328125 0,0.28125 0.265625,0.484375 0.625,0.484375 0.59375,0 0.96875,-0.6875 0.96875,-0.78125 0,-0.0625 -0.09375,-0.0625 -0.109375,-0.0625 -0.078125,0 -0.09375,0.015625 -0.109375,0.078125 -0.171875,0.359375 -0.46875,0.59375 -0.734375,0.59375 -0.15625,0 -0.203125,-0.125 -0.203125,-0.265625 0,-0.078125 0,-0.09375 0.015625,-0.140625 z m 0,0"
   id="path527" />
      </g></g>
  <g
   fill="#000000"
   fill-opacity="1"
   id="g531"
   transform="translate(-149.118,-130.359)">
    <g
   transform="translate(161.6,136.259)"
   id="g530"><path
   d="M 2.703125,-1.109375 H 4.4375 c 0.0625,0 0.203125,0 0.203125,-0.140625 C 4.640625,-1.390625 4.5,-1.390625 4.4375,-1.390625 H 2.703125 V -3.125 c 0,-0.0625 0,-0.203125 -0.140625,-0.203125 -0.140625,0 -0.140625,0.140625 -0.140625,0.203125 v 1.734375 H 0.6875 c -0.0625,0 -0.203125,0 -0.203125,0.140625 0,0.140625 0.140625,0.140625 0.203125,0.140625 H 2.421875 V 0.625 c 0,0.078125 0,0.203125 0.140625,0.203125 0.140625,0 0.140625,-0.125 0.140625,-0.203125 z m 0,0"
   id="path529" />
      </g></g>
  <g
   fill="#000000"
   fill-opacity="1"
   id="g533"
   transform="translate(-149.118,-130.359)">
    <g
   transform="translate(166.72,136.259)"
   id="g532"><path
   d="m 1.828125,-3.265625 c 0.03125,-0.078125 0.03125,-0.078125 0.03125,-0.109375 0,-0.078125 -0.078125,-0.078125 -0.15625,-0.078125 L 1.09375,-3.40625 c -0.09375,0 -0.109375,0 -0.125,0.03125 -0.015625,0.015625 -0.03125,0.078125 -0.03125,0.109375 0,0.078125 0.078125,0.078125 0.140625,0.078125 0.015625,0 0.09375,0 0.171875,0.015625 0.09375,0.015625 0.09375,0.03125 0.09375,0.0625 0,0.015625 0,0.03125 -0.015625,0.125 l -0.6875,2.75 C 0.625,-0.171875 0.625,-0.15625 0.625,-0.125 c 0,0.109375 0.078125,0.1875 0.1875,0.1875 0.09375,0 0.203125,-0.078125 0.234375,-0.203125 0.015625,-0.046875 0.03125,-0.125 0.109375,-0.4375 L 1.25,-0.921875 c 0.078125,-0.296875 0.078125,-0.3125 0.203125,-0.53125 0.21875,-0.296875 0.5,-0.578125 0.90625,-0.578125 0.25,0 0.34375,0.140625 0.34375,0.359375 0,0.28125 -0.21875,0.8125 -0.28125,0.984375 -0.078125,0.171875 -0.09375,0.21875 -0.09375,0.296875 0,0.265625 0.25,0.453125 0.546875,0.453125 0.53125,0 0.796875,-0.65625 0.796875,-0.78125 0,-0.0625 -0.078125,-0.0625 -0.109375,-0.0625 -0.078125,0 -0.078125,0.015625 -0.109375,0.109375 -0.09375,0.265625 -0.3125,0.5625 -0.5625,0.5625 -0.109375,0 -0.15625,-0.078125 -0.15625,-0.1875 0,-0.109375 0.0625,-0.25 0.109375,-0.375 0.0625,-0.125 0.28125,-0.671875 0.28125,-0.9375 0,-0.34375 -0.234375,-0.59375 -0.75,-0.59375 -0.484375,0 -0.78125,0.3125 -0.921875,0.484375 z m 0,0"
   id="path531" />
      </g></g>
</g><path
       style="opacity:0.805;fill:#1a1a1a;stroke:#000000;stroke-width:0.3;stroke-dasharray:none;marker-end:url(#Triangle);paint-order:stroke fill markers"
       d="m 126.22856,61.620276 h 6.53865"
       id="path534" /><text
       xml:space="preserve"
       style="font-style:normal;font-variant:normal;font-weight:normal;font-stretch:normal;font-size:3.88056px;line-height:normal;font-family:'Minion Pro';-inkscape-font-specification:'Minion Pro';text-align:center;text-decoration-color:#000000;writing-mode:lr-tb;direction:ltr;text-anchor:middle;fill:#a5dce0;stroke:#000000;stroke-width:0;paint-order:stroke fill markers"
       x="136.9192"
       y="57.975582"
       id="text534"><tspan
         style="font-style:normal;font-variant:normal;font-weight:normal;font-stretch:normal;font-size:3.88056px;font-family:'Acumin Pro';-inkscape-font-specification:'Acumin Pro';fill:#000000;stroke:#000000;stroke-width:0"
         x="136.9192"
         y="57.975582"
         id="tspan534">RLA</tspan></text><g
       transform="matrix(0.66205263,0,0,0.63404429,135.61845,59.039576)"
       ns2:version="1.11.0"
       ns2:texconverter="pdflatex"
       ns2:pdfconverter="inkscape"
       ns2:text="$\\hat{z}$"
       ns2:preamble="/Users/xinyu/Library/Application Support/org.inkscape.Inkscape/config/inkscape/extensions/textext/default_packages.tex"
       ns2:scale="1.5738545180571164"
       ns2:alignment="middle center"
       ns2:inkscapeversion="1.4"
       ns2:jacobian_sqrt="0.5552213155130122"
       id="g542"><defs
   id="defs537" />
  <g
   fill="#000000"
   fill-opacity="1"
   id="g539"
   transform="translate(-149.134,-127.843)">
    <g
   transform="translate(149.311,134.765)"
   id="g538"><path
   d="M 2.5,-6.921875 1.15625,-5.5625 1.328125,-5.390625 2.5,-6.40625 3.640625,-5.390625 3.8125,-5.5625 Z m 0,0"
   id="path537" />
      </g></g>
  <g
   fill="#000000"
   fill-opacity="1"
   id="g541"
   transform="translate(-149.134,-127.843)">
    <g
   transform="translate(148.712,134.765)"
   id="g540"><path
   d="m 1.328125,-0.828125 c 0.53125,-0.578125 0.828125,-0.828125 1.1875,-1.140625 0,0 0.609375,-0.53125 0.96875,-0.890625 C 4.4375,-3.78125 4.65625,-4.265625 4.65625,-4.3125 c 0,-0.09375 -0.09375,-0.09375 -0.109375,-0.09375 -0.078125,0 -0.09375,0.015625 -0.15625,0.109375 -0.296875,0.484375 -0.5,0.640625 -0.734375,0.640625 -0.25,0 -0.359375,-0.15625 -0.515625,-0.328125 -0.1875,-0.21875 -0.359375,-0.421875 -0.6875,-0.421875 -0.75,0 -1.203125,0.921875 -1.203125,1.140625 0,0.046875 0.03125,0.109375 0.109375,0.109375 0.09375,0 0.109375,-0.046875 0.140625,-0.109375 0.1875,-0.46875 0.765625,-0.46875 0.84375,-0.46875 0.203125,0 0.390625,0.0625 0.625,0.140625 0.40625,0.15625 0.515625,0.15625 0.765625,0.15625 -0.359375,0.421875 -1.1875,1.140625 -1.375,1.296875 l -0.90625,0.84375 C 0.78125,-0.625 0.421875,-0.0625 0.421875,0.015625 c 0,0.09375 0.109375,0.09375 0.125,0.09375 0.078125,0 0.09375,-0.015625 0.15625,-0.125 0.234375,-0.359375 0.53125,-0.625 0.859375,-0.625 0.21875,0 0.328125,0.09375 0.578125,0.375 0.15625,0.21875 0.34375,0.375 0.625,0.375 1,0 1.578125,-1.265625 1.578125,-1.53125 0,-0.046875 -0.046875,-0.109375 -0.125,-0.109375 -0.09375,0 -0.109375,0.0625 -0.140625,0.140625 C 3.84375,-0.75 3.203125,-0.5625 2.875,-0.5625 c -0.1875,0 -0.375,-0.0625 -0.578125,-0.125 -0.34375,-0.125 -0.5,-0.171875 -0.703125,-0.171875 -0.015625,0 -0.171875,0 -0.265625,0.03125 z m 0,0"
   id="path539" />
      </g></g>
</g><g
       transform="matrix(0.51181443,0,0,0.51181443,134.08724,69.879026)"
       ns2:version="1.11.0"
       ns2:texconverter="pdflatex"
       ns2:pdfconverter="inkscape"
       ns2:text="$f_{\\text{dec}}$"
       ns2:preamble="/Users/xinyu/Library/Application Support/org.inkscape.Inkscape/config/inkscape/extensions/textext/default_packages.tex"
       ns2:scale="1.0"
       ns2:alignment="middle center"
       ns2:inkscapeversion="1.4"
       ns2:jacobian_sqrt="0.352778"
       id="g554"><defs
   id="defs547" />
  <g
   fill="#000000"
   fill-opacity="1"
   id="g549"
   transform="translate(-149.243,-127.734)">
    <g
   transform="translate(148.712,134.765)"
   id="g548"><path
   d="m 3.65625,-3.984375 h 0.859375 c 0.203125,0 0.296875,0 0.296875,-0.203125 0,-0.109375 -0.09375,-0.109375 -0.265625,-0.109375 H 3.71875 L 3.921875,-5.4375 c 0.046875,-0.203125 0.1875,-0.90625 0.25,-1.03125 0.078125,-0.1875 0.25,-0.34375 0.46875,-0.34375 0.03125,0 0.296875,0 0.484375,0.1875 -0.4375,0.03125 -0.546875,0.390625 -0.546875,0.53125 0,0.234375 0.1875,0.359375 0.375,0.359375 C 5.21875,-5.734375 5.5,-5.96875 5.5,-6.34375 c 0,-0.453125 -0.453125,-0.6875 -0.859375,-0.6875 -0.34375,0 -0.96875,0.1875 -1.265625,1.171875 -0.0625,0.203125 -0.09375,0.3125 -0.328125,1.5625 h -0.6875 c -0.203125,0 -0.3125,0 -0.3125,0.1875 0,0.125 0.09375,0.125 0.28125,0.125 h 0.65625 L 2.25,-0.046875 c -0.1875,0.96875 -0.359375,1.875 -0.875,1.875 -0.046875,0 -0.28125,0 -0.484375,-0.1875 C 1.359375,1.609375 1.453125,1.25 1.453125,1.109375 1.453125,0.875 1.265625,0.75 1.078125,0.75 0.8125,0.75 0.53125,0.984375 0.53125,1.359375 c 0,0.4375 0.4375,0.6875 0.84375,0.6875 0.546875,0 0.953125,-0.59375 1.125,-0.96875 0.328125,-0.625 0.546875,-1.828125 0.5625,-1.90625 z m 0,0"
   id="path547" />
      </g></g>
  <g
   fill="#000000"
   fill-opacity="1"
   id="g553"
   transform="translate(-149.243,-127.734)">
    <g
   transform="translate(153.59,136.259)"
   id="g550"><path
   d="m 2.484375,-4.765625 v 0.25 C 2.953125,-4.515625 3,-4.453125 3,-4.125 v 1.453125 c -0.25,-0.25 -0.59375,-0.40625 -0.96875,-0.40625 -0.9375,0 -1.703125,0.703125 -1.703125,1.578125 0,0.875 0.734375,1.5625 1.609375,1.5625 0.578125,0 0.921875,-0.296875 1.03125,-0.421875 V 0.0625 L 4.046875,0 V -0.25 C 3.578125,-0.25 3.53125,-0.296875 3.53125,-0.640625 V -4.84375 Z m 0.484375,4.03125 C 2.796875,-0.40625 2.4375,-0.125 1.984375,-0.125 1.59375,-0.125 1.3125,-0.359375 1.171875,-0.5625 1.03125,-0.765625 0.953125,-1.046875 0.953125,-1.484375 c 0,-0.171875 0,-0.6875 0.28125,-1.015625 0.28125,-0.3125 0.625,-0.375 0.828125,-0.375 0.328125,0 0.640625,0.15625 0.828125,0.40625 0.078125,0.109375 0.078125,0.109375 0.078125,0.25 z m 0,0"
   id="path549" />
      </g><g
   transform="translate(157.99,136.259)"
   id="g551"><path
   d="m 3.0625,-1.59375 c 0.15625,0 0.203125,0 0.203125,-0.140625 0,-0.625 -0.34375,-1.375 -1.390625,-1.375 -0.90625,0 -1.609375,0.71875 -1.609375,1.578125 0,0.890625 0.78125,1.59375 1.703125,1.59375 0.9375,0 1.296875,-0.75 1.296875,-0.90625 0,-0.015625 -0.015625,-0.09375 -0.125,-0.09375 -0.09375,0 -0.109375,0.046875 -0.125,0.109375 -0.21875,0.5625 -0.75,0.671875 -1,0.671875 C 1.6875,-0.15625 1.375,-0.296875 1.171875,-0.5625 0.90625,-0.890625 0.90625,-1.3125 0.90625,-1.59375 Z M 0.90625,-1.765625 C 0.984375,-2.75 1.609375,-2.90625 1.875,-2.90625 c 0.859375,0 0.890625,0.96875 0.90625,1.140625 z m 0,0"
   id="path550" />
      </g><g
   transform="translate(161.532,136.259)"
   id="g552"><path
   d="m 2.703125,-2.78125 c -0.125,0.0625 -0.1875,0.171875 -0.1875,0.3125 0,0.1875 0.125,0.328125 0.328125,0.328125 0.1875,0 0.328125,-0.125 0.328125,-0.34375 0,-0.625 -0.96875,-0.625 -1.15625,-0.625 -1.046875,0 -1.6875,0.796875 -1.6875,1.609375 0,0.875 0.734375,1.5625 1.65625,1.5625 1.03125,0 1.28125,-0.8125 1.28125,-0.90625 0,-0.078125 -0.09375,-0.078125 -0.125,-0.078125 -0.09375,0 -0.09375,0.015625 -0.125,0.125 C 2.859375,-0.375 2.484375,-0.15625 2.0625,-0.15625 c -0.484375,0 -1.109375,-0.359375 -1.109375,-1.359375 0,-0.875 0.4375,-1.375 1.078125,-1.375 0.09375,0 0.421875,0 0.671875,0.109375 z m 0,0"
   id="path551" />
      </g></g>
</g><path
       style="font-variation-settings:normal;opacity:0.805;vector-effect:none;fill:none;fill-opacity:1;stroke:#000000;stroke-width:0.3;stroke-linecap:butt;stroke-linejoin:miter;stroke-miterlimit:4;stroke-dasharray:none;stroke-dashoffset:0;stroke-opacity:1;-inkscape-stroke:none;marker-end:url(#Triangle);paint-order:stroke fill markers"
       d="m 105.81047,63.753967 c 0,0 12.84583,8.471179 27.22668,8.471179"
       id="path573" /><path
       style="opacity:0.805;fill:#1a1a1a;stroke:#000000;stroke-width:0.3;stroke-dasharray:none;marker-end:url(#Triangle);paint-order:stroke fill markers"
       d="m 137.45155,64.686906 v 3.33971"
       id="path574" /><g
       transform="matrix(0.624401,0,0,0.624401,144.76102,58.435957)"
       ns2:version="1.11.0"
       ns2:texconverter="pdflatex"
       ns2:pdfconverter="inkscape"
       ns2:text="$\\hat{s}_{\\scriptscriptstyle t+h}$"
       ns2:preamble="/Users/xinyu/Library/Application Support/org.inkscape.Inkscape/config/inkscape/extensions/textext/default_packages.tex"
       ns2:scale="1.769954503965667"
       ns2:alignment="middle center"
       ns2:inkscapeversion="1.4"
       ns2:jacobian_sqrt="0.624401"
       id="g591"><defs
   id="defs580" />
  <g
   fill="#000000"
   fill-opacity="1"
   id="g582"
   transform="translate(-149.228,-127.843)">
    <g
   transform="translate(149.11,134.765)"
   id="g581"><path
   d="M 2.5,-6.921875 1.15625,-5.5625 1.328125,-5.390625 2.5,-6.40625 3.640625,-5.390625 3.8125,-5.5625 Z m 0,0"
   id="path580" />
      </g></g>
  <g
   fill="#000000"
   fill-opacity="1"
   id="g584"
   transform="translate(-149.228,-127.843)">
    <g
   transform="translate(148.712,134.765)"
   id="g583"><path
   d="M 3.890625,-3.734375 C 3.625,-3.71875 3.421875,-3.5 3.421875,-3.28125 c 0,0.140625 0.09375,0.296875 0.3125,0.296875 0.21875,0 0.453125,-0.171875 0.453125,-0.5625 C 4.1875,-4 3.765625,-4.40625 3,-4.40625 c -1.3125,0 -1.6875,1.015625 -1.6875,1.453125 0,0.78125 0.734375,0.921875 1.03125,0.984375 0.515625,0.109375 1.03125,0.21875 1.03125,0.765625 0,0.25 -0.21875,1.09375 -1.421875,1.09375 -0.140625,0 -0.90625,0 -1.140625,-0.53125 0.390625,0.046875 0.640625,-0.25 0.640625,-0.53125 0,-0.21875 -0.171875,-0.34375 -0.375,-0.34375 -0.265625,0 -0.5625,0.203125 -0.5625,0.65625 0,0.5625 0.578125,0.96875 1.421875,0.96875 1.625,0 2.015625,-1.203125 2.015625,-1.65625 0,-0.359375 -0.1875,-0.609375 -0.3125,-0.71875 -0.265625,-0.28125 -0.5625,-0.34375 -1,-0.421875 -0.359375,-0.078125 -0.75,-0.15625 -0.75,-0.609375 C 1.890625,-3.578125 2.125,-4.1875 3,-4.1875 c 0.25,0 0.75,0.078125 0.890625,0.453125 z m 0,0"
   id="path582" />
      </g></g>
  <g
   fill="#000000"
   fill-opacity="1"
   id="g586"
   transform="translate(-149.228,-127.843)">
    <g
   transform="translate(153.382,136.259)"
   id="g585"><path
   d="m 1.5625,-1.921875 h 0.59375 c 0.109375,0 0.109375,0 0.125,-0.03125 C 2.3125,-1.96875 2.328125,-2.03125 2.328125,-2.0625 2.328125,-2.140625 2.25,-2.140625 2.171875,-2.140625 H 1.625 L 1.71875,-2.5625 C 1.75,-2.6875 1.8125,-2.921875 1.8125,-2.953125 1.8125,-3.03125 1.75,-3.125 1.625,-3.125 c -0.078125,0 -0.203125,0.0625 -0.234375,0.1875 -0.03125,0.09375 0.03125,-0.140625 -0.203125,0.796875 H 0.59375 c -0.09375,0 -0.171875,0 -0.171875,0.125 0,0.09375 0.0625,0.09375 0.15625,0.09375 H 1.125 L 0.84375,-0.75 c -0.03125,0.109375 -0.078125,0.265625 -0.078125,0.328125 0,0.28125 0.265625,0.484375 0.625,0.484375 0.59375,0 0.96875,-0.6875 0.96875,-0.78125 0,-0.0625 -0.09375,-0.0625 -0.109375,-0.0625 -0.078125,0 -0.09375,0.015625 -0.109375,0.078125 -0.171875,0.359375 -0.46875,0.59375 -0.734375,0.59375 -0.15625,0 -0.203125,-0.125 -0.203125,-0.265625 0,-0.078125 0,-0.09375 0.015625,-0.140625 z m 0,0"
   id="path584" />
      </g></g>
  <g
   fill="#000000"
   fill-opacity="1"
   id="g588"
   transform="translate(-149.228,-127.843)">
    <g
   transform="translate(156.19,136.259)"
   id="g587"><path
   d="M 2.703125,-1.109375 H 4.4375 c 0.0625,0 0.203125,0 0.203125,-0.140625 C 4.640625,-1.390625 4.5,-1.390625 4.4375,-1.390625 H 2.703125 V -3.125 c 0,-0.0625 0,-0.203125 -0.140625,-0.203125 -0.140625,0 -0.140625,0.140625 -0.140625,0.203125 v 1.734375 H 0.6875 c -0.0625,0 -0.203125,0 -0.203125,0.140625 0,0.140625 0.140625,0.140625 0.203125,0.140625 H 2.421875 V 0.625 c 0,0.078125 0,0.203125 0.140625,0.203125 0.140625,0 0.140625,-0.125 0.140625,-0.203125 z m 0,0"
   id="path586" />
      </g></g>
  <g
   fill="#000000"
   fill-opacity="1"
   id="g590"
   transform="translate(-149.228,-127.843)">
    <g
   transform="translate(161.31,136.259)"
   id="g589"><path
   d="m 1.828125,-3.265625 c 0.03125,-0.078125 0.03125,-0.078125 0.03125,-0.109375 0,-0.078125 -0.078125,-0.078125 -0.15625,-0.078125 L 1.09375,-3.40625 c -0.09375,0 -0.109375,0 -0.125,0.03125 -0.015625,0.015625 -0.03125,0.078125 -0.03125,0.109375 0,0.078125 0.078125,0.078125 0.140625,0.078125 0.015625,0 0.09375,0 0.171875,0.015625 0.09375,0.015625 0.09375,0.03125 0.09375,0.0625 0,0.015625 0,0.03125 -0.015625,0.125 l -0.6875,2.75 C 0.625,-0.171875 0.625,-0.15625 0.625,-0.125 c 0,0.109375 0.078125,0.1875 0.1875,0.1875 0.09375,0 0.203125,-0.078125 0.234375,-0.203125 0.015625,-0.046875 0.03125,-0.125 0.109375,-0.4375 L 1.25,-0.921875 c 0.078125,-0.296875 0.078125,-0.3125 0.203125,-0.53125 0.21875,-0.296875 0.5,-0.578125 0.90625,-0.578125 0.25,0 0.34375,0.140625 0.34375,0.359375 0,0.28125 -0.21875,0.8125 -0.28125,0.984375 -0.078125,0.171875 -0.09375,0.21875 -0.09375,0.296875 0,0.265625 0.25,0.453125 0.546875,0.453125 0.53125,0 0.796875,-0.65625 0.796875,-0.78125 0,-0.0625 -0.078125,-0.0625 -0.109375,-0.0625 -0.078125,0 -0.078125,0.015625 -0.109375,0.109375 -0.09375,0.265625 -0.3125,0.5625 -0.5625,0.5625 -0.109375,0 -0.15625,-0.078125 -0.15625,-0.1875 0,-0.109375 0.0625,-0.25 0.109375,-0.375 0.0625,-0.125 0.28125,-0.671875 0.28125,-0.9375 0,-0.34375 -0.234375,-0.59375 -0.75,-0.59375 -0.484375,0 -0.78125,0.3125 -0.921875,0.484375 z m 0,0"
   id="path588" />
      </g></g>
</g><path
       style="font-variation-settings:normal;opacity:0.805;vector-effect:none;fill:none;fill-opacity:1;stroke:#000000;stroke-width:0.3;stroke-linecap:butt;stroke-linejoin:miter;stroke-miterlimit:4;stroke-dasharray:none;stroke-dashoffset:0;stroke-opacity:1;-inkscape-stroke:none;marker-end:url(#Triangle);paint-order:stroke fill markers"
       d="m 142.44192,71.96227 c 0,0 5.31056,-1.573492 5.31056,-6.490665"
       id="path591" /></g></svg>
